<svg xmlns="http://www.w3.org/2000/svg" width="16" height="16" viewBox="0 0 16 16" enable-background="new 0 0 16 16"><g fill="#bbb"><path d="m8 2c3.309 0 6 2.691 6 6 0 3.309-2.691 6-6 6-3.309 0-6-2.691-6-6 0-3.309 2.691-6 6-6m0-1c-3.866 0-7 3.134-7 7s3.134 7 7 7 7-3.134 7-7-3.134-7-7-7z"/><path d="m7.108 9.458v-.209c0-.726.298-1.276 1.111-2 .452-.407.596-.737.596-1.122 0-.418-.241-.759-.771-.759-.627 0-.836.429-.891.957h-1.55c.054-.925.637-2.179 2.464-2.168 1.804 0 2.332 1.166 2.332 2.024 0 .693-.219 1.166-1.012 1.903-.474.439-.628.805-.628 1.254v.121h-1.651m0 2.388v-1.826h1.65v1.826h-1.65"/></g></svg>